<mxfile host="65bd71144e">
    <diagram id="z1dAxJCMQBBYWw2ve44u" name="第 1 页">
        <mxGraphModel dx="1980" dy="1134" grid="1" gridSize="10" guides="1" tooltips="1" connect="1" arrows="1" fold="1" page="1" pageScale="1" pageWidth="1169" pageHeight="827" math="0" shadow="0">
            <root>
                <mxCell id="0"/>
                <mxCell id="1" parent="0"/>
                <mxCell id="2" value="" style="rounded=0;whiteSpace=wrap;html=1;" vertex="1" parent="1">
                    <mxGeometry x="590" y="114" width="450" height="300" as="geometry"/>
                </mxCell>
                <mxCell id="3" value="Header&lt;br&gt;&amp;lt;title&amp;gt;" style="rounded=0;whiteSpace=wrap;html=1;" vertex="1" parent="1">
                    <mxGeometry x="590" y="114" width="450" height="40" as="geometry"/>
                </mxCell>
                <mxCell id="4" value="..." style="rounded=0;whiteSpace=wrap;html=1;" vertex="1" parent="1">
                    <mxGeometry x="590" y="154" width="90" height="260" as="geometry"/>
                </mxCell>
                <mxCell id="5" value="tab1&lt;br&gt;&amp;lt;function1&amp;gt;" style="rounded=0;whiteSpace=wrap;html=1;" vertex="1" parent="1">
                    <mxGeometry x="590" y="154" width="90" height="50" as="geometry"/>
                </mxCell>
                <mxCell id="6" value="tab2&lt;br&gt;&amp;lt;function2&amp;gt;" style="rounded=0;whiteSpace=wrap;html=1;" vertex="1" parent="1">
                    <mxGeometry x="590" y="204" width="90" height="50" as="geometry"/>
                </mxCell>
                <mxCell id="7" value="footer&lt;br&gt;&amp;lt;tips&amp;gt;" style="rounded=0;whiteSpace=wrap;html=1;" vertex="1" parent="1">
                    <mxGeometry x="680" y="384" width="360" height="30" as="geometry"/>
                </mxCell>
                <mxCell id="8" value="container&lt;br&gt;&amp;lt;main&amp;gt;" style="rounded=0;whiteSpace=wrap;html=1;" vertex="1" parent="1">
                    <mxGeometry x="700" y="174" width="320" height="190" as="geometry"/>
                </mxCell>
                <mxCell id="10" value="" style="rounded=0;whiteSpace=wrap;html=1;" vertex="1" parent="1">
                    <mxGeometry x="80" y="114" width="450" height="300" as="geometry"/>
                </mxCell>
                <mxCell id="12" value="Header&lt;br style=&quot;font-size: 12px;&quot;&gt;&amp;lt;title&amp;gt;" style="rounded=0;whiteSpace=wrap;html=1;fontSize=12;" vertex="1" parent="1">
                    <mxGeometry x="80" y="114" width="450" height="40" as="geometry"/>
                </mxCell>
                <mxCell id="13" value="button1&lt;br&gt;&amp;lt;user_login&amp;gt;" style="rounded=0;whiteSpace=wrap;html=1;fontSize=12;" vertex="1" parent="1">
                    <mxGeometry x="120" y="174" width="370" height="80" as="geometry"/>
                </mxCell>
                <mxCell id="14" value="button2&lt;br&gt;&amp;lt;delivery_login&amp;gt;" style="rounded=0;whiteSpace=wrap;html=1;fontSize=12;" vertex="1" parent="1">
                    <mxGeometry x="120" y="274" width="170" height="60" as="geometry"/>
                </mxCell>
                <mxCell id="15" value="button3&lt;br&gt;&amp;lt;manager_login&amp;gt;" style="rounded=0;whiteSpace=wrap;html=1;fontSize=12;" vertex="1" parent="1">
                    <mxGeometry x="310" y="274" width="180" height="60" as="geometry"/>
                </mxCell>
                <mxCell id="16" value="footer&lt;br&gt;&amp;lt;copyright&amp;gt;" style="rounded=0;whiteSpace=wrap;html=1;fontSize=12;" vertex="1" parent="1">
                    <mxGeometry x="80" y="374" width="450" height="40" as="geometry"/>
                </mxCell>
                <mxCell id="19" value="&lt;h2&gt;首页设计&lt;/h2&gt;" style="text;html=1;align=center;verticalAlign=middle;resizable=0;points=[];autosize=1;strokeColor=none;fillColor=none;" vertex="1" parent="1">
                    <mxGeometry x="80" y="64" width="90" height="50" as="geometry"/>
                </mxCell>
                <mxCell id="20" value="&lt;h2&gt;&lt;b&gt;&lt;font style=&quot;font-size: 20px&quot;&gt;主要页面设计&lt;/font&gt;&lt;/b&gt;&lt;/h2&gt;" style="text;html=1;align=center;verticalAlign=middle;resizable=0;points=[];autosize=1;strokeColor=none;fillColor=none;" vertex="1" parent="1">
                    <mxGeometry x="590" y="64" width="140" height="50" as="geometry"/>
                </mxCell>
                <mxCell id="21" value="&lt;h1&gt;设计&lt;/h1&gt;" style="text;html=1;align=center;verticalAlign=middle;resizable=0;points=[];autosize=1;strokeColor=none;fillColor=none;" vertex="1" parent="1">
                    <mxGeometry x="40" y="14" width="60" height="50" as="geometry"/>
                </mxCell>
                <mxCell id="22" value="" style="rounded=0;whiteSpace=wrap;html=1;" vertex="1" parent="1">
                    <mxGeometry x="80" y="490" width="450" height="300" as="geometry"/>
                </mxCell>
                <mxCell id="23" value="&lt;h2&gt;动态提示样式&lt;/h2&gt;" style="text;html=1;align=center;verticalAlign=middle;resizable=0;points=[];autosize=1;strokeColor=none;fillColor=none;" vertex="1" parent="1">
                    <mxGeometry x="80" y="440" width="120" height="50" as="geometry"/>
                </mxCell>
                <mxCell id="24" value="Header&lt;br style=&quot;font-size: 12px;&quot;&gt;&amp;lt;title&amp;gt;" style="rounded=0;whiteSpace=wrap;html=1;fontSize=12;" vertex="1" parent="1">
                    <mxGeometry x="80" y="490" width="450" height="40" as="geometry"/>
                </mxCell>
                <mxCell id="25" value="msg1&lt;br&gt;&amp;lt;info&amp;gt;" style="rounded=0;whiteSpace=wrap;html=1;" vertex="1" parent="1">
                    <mxGeometry x="420" y="540" width="100" height="50" as="geometry"/>
                </mxCell>
                <mxCell id="27" value="msg2&lt;br&gt;&amp;lt;warning&amp;gt;" style="rounded=0;whiteSpace=wrap;html=1;" vertex="1" parent="1">
                    <mxGeometry x="420" y="600" width="100" height="50" as="geometry"/>
                </mxCell>
                <mxCell id="28" value="msg3&lt;br&gt;&amp;lt;danger&amp;gt;" style="rounded=0;whiteSpace=wrap;html=1;" vertex="1" parent="1">
                    <mxGeometry x="420" y="660" width="100" height="50" as="geometry"/>
                </mxCell>
                <mxCell id="30" value="" style="rounded=0;whiteSpace=wrap;html=1;" vertex="1" parent="1">
                    <mxGeometry x="130" y="570" width="220" height="110" as="geometry"/>
                </mxCell>
                <mxCell id="36" value="" style="endArrow=classic;html=1;exitX=0;exitY=0.5;exitDx=0;exitDy=0;entryX=1;entryY=0.5;entryDx=0;entryDy=0;" edge="1" parent="1" source="27" target="30">
                    <mxGeometry width="50" height="50" relative="1" as="geometry">
                        <mxPoint x="360" y="650" as="sourcePoint"/>
                        <mxPoint x="410" y="600" as="targetPoint"/>
                    </mxGeometry>
                </mxCell>
                <mxCell id="39" value="&lt;h3&gt;msg_title&lt;/h3&gt;" style="text;html=1;align=center;verticalAlign=middle;resizable=0;points=[];autosize=1;strokeColor=none;fillColor=none;" vertex="1" parent="1">
                    <mxGeometry x="130" y="570" width="80" height="50" as="geometry"/>
                </mxCell>
                <mxCell id="40" value="some text..." style="text;html=1;strokeColor=none;fillColor=none;align=left;verticalAlign=top;whiteSpace=wrap;rounded=0;horizontal=1;" vertex="1" parent="1">
                    <mxGeometry x="140" y="610" width="200" height="60" as="geometry"/>
                </mxCell>
                <mxCell id="41" value="background-color" style="text;html=1;strokeColor=none;fillColor=none;align=center;verticalAlign=middle;whiteSpace=wrap;rounded=0;" vertex="1" parent="1">
                    <mxGeometry x="240" y="650" width="110" height="30" as="geometry"/>
                </mxCell>
            </root>
        </mxGraphModel>
    </diagram>
</mxfile>